<mxfile host="app.diagrams.net" modified="2023-04-24T17:31:35.601Z" agent="Mozilla/5.0 (X11; Linux x86_64; rv:103.0) Gecko/20100101 Firefox/103.0" version="21.2.1" etag="vRJ-ZmejYhHO30kmzY7b" type="github">
  <diagram name="Page-1" id="uQeetI1W81cnS9efc7UN">
    <mxGraphModel>
      <root>
        <mxCell id="0" />
        <mxCell id="1" parent="0" />
      </root>
    </mxGraphModel>
  </diagram>
</mxfile>
